<svg width="12" height="12" viewBox="0 0 12 12" fill="none" xmlns="http://www.w3.org/2000/svg">
<g clip-path="url(#clip0)">
<path d="M11.8594 5.58997C11.677 5.2959 11.3548 5.12012 10.9974 5.12012H3.03885C2.64435 5.12012 2.28555 5.3425 2.12451 5.68683L0.0195312 10.1003C0.0989991 10.4235 0.400849 10.6649 0.760376 10.6649H9.22764C9.58964 10.6649 9.92051 10.4602 10.0822 10.1363L11.9016 6.48957C12.0453 6.20099 12.0293 5.86472 11.8594 5.58997Z" fill="#383838" fill-opacity="0.85"/>
<path d="M1.69693 5.00757C1.85779 4.66333 2.21668 4.44086 2.61127 4.44086H10.1055V3.4823C10.1055 3.08716 9.77216 2.76563 9.36246 2.76563H4.99265C4.98624 2.76563 4.98184 2.76398 4.9802 2.76279L4.19806 1.66919C4.05954 1.47519 3.83075 1.35938 3.58631 1.35938H0.743226C0.333344 1.35938 0 1.68091 0 2.07605V8.56531L1.69693 5.00757Z" fill="#383838" fill-opacity="0.85"/>
</g>
<defs>
<clipPath id="clip0">
<rect width="12" height="12" fill="white"/>
</clipPath>
</defs>
</svg>
