<svg width="23" height="24" viewBox="0 0 23 24" fill="none" xmlns="http://www.w3.org/2000/svg">
<path fill-rule="evenodd" clip-rule="evenodd" d="M14.3593 0.520525H20.4437C21.7681 0.520525 22.8418 1.59422 22.8418 2.91862V9.00299C22.8386 10.1472 22.3843 11.2439 21.5775 12.0553L10.908 22.7238C9.81665 23.8141 8.04832 23.8141 6.95696 22.7238L1.65886 17.4249H8.05358C7.94175 17.2117 7.86926 16.9776 7.8466 16.7307C7.8416 16.6745 7.83754 16.6183 7.83754 16.5607C7.83754 15.4611 8.80137 14.5661 9.98601 14.5661C11.1704 14.5661 12.134 15.4609 12.134 16.5607C12.134 16.6404 12.1278 16.7225 12.1154 16.8113C12.0861 17.0288 12.0176 17.2327 11.9204 17.4213L13.4672 17.2639C13.7059 17.2393 13.9002 17.0746 13.9477 16.8561C13.9777 16.7179 14.0083 16.5467 14.029 16.3543C14.1323 15.3931 13.5144 14.4902 12.5349 14.1658C10.0485 13.3423 6.56229 13.4242 6.56229 13.4242C6.56229 13.4242 4.41549 12.4112 3.66412 12.1524C2.93642 11.9017 2.18282 11.7464 1.42401 11.6678L11.3061 1.78477C12.1141 0.972546 13.2136 0.517288 14.3593 0.520525ZM0 13.4422C0.135732 13.0817 0.348568 12.7436 0.63851 12.4533L1.00574 12.0861C3.20709 12.2395 4.55474 13.0467 4.55474 13.0467C4.3418 13.263 4.39021 13.4422 4.39021 13.4422H0ZM15.168 5.79631C15.168 7.12071 16.2416 8.19436 17.566 8.19436C18.8904 8.19436 19.9641 7.12067 19.9641 5.79626C19.9641 4.47185 18.8904 3.39821 17.566 3.39821C16.2416 3.39821 15.168 4.4719 15.168 5.79631ZM11.7652 16.5607C11.7652 15.6482 10.9688 14.9091 9.98633 14.9091C9.00342 14.9091 8.20699 15.6482 8.20722 16.5602C8.20722 16.6081 8.21033 16.6548 8.21486 16.7015C8.29212 17.5475 9.05493 18.2123 9.98633 18.2123C10.8927 18.2123 11.6393 17.5825 11.7495 16.7684C11.759 16.7004 11.7652 16.6313 11.7652 16.5607ZM10.5145 16.2753L10.8774 15.9385C10.9895 16.0769 11.0637 16.2405 11.0906 16.4205H10.5791C10.5648 16.3689 10.5429 16.3202 10.5145 16.2753ZM10.577 16.7068H11.092C11.0646 16.8857 10.9886 17.0498 10.876 17.1873L10.5126 16.8498C10.5412 16.8058 10.5622 16.7575 10.577 16.7068ZM10.6561 17.3886C10.5081 17.492 10.333 17.5624 10.1401 17.587V17.1105C10.1947 17.097 10.247 17.0781 10.2944 17.0524L10.6561 17.3886ZM10.2975 16.0722C10.2486 16.0454 10.1962 16.0253 10.1401 16.0115V15.5359C10.3345 15.5609 10.5112 15.6303 10.6602 15.7354L10.2975 16.0722ZM9.31246 15.7356C9.46149 15.6307 9.63843 15.5609 9.83229 15.5359V16.0115C9.77649 16.0248 9.72379 16.0454 9.67491 16.0722L9.31246 15.7356ZM9.83229 17.1105V17.5867C9.63938 17.5622 9.46412 17.4917 9.31604 17.3886L9.67825 17.052C9.7257 17.0781 9.77769 17.097 9.83229 17.1105ZM9.46006 16.8496L9.09523 17.1886C8.98268 17.0511 8.90971 16.8857 8.88253 16.7066H9.39377C9.40832 16.758 9.43193 16.8056 9.46006 16.8496ZM9.45816 16.2755C9.42978 16.3204 9.40808 16.3691 9.39353 16.4207L8.88205 16.4212C8.90876 16.2407 8.98292 16.0771 9.09523 15.9387L9.45816 16.2755Z" fill="#D80739"/>
</svg>
