<svg width="12" height="12" viewBox="0 0 12 12" fill="none" xmlns="http://www.w3.org/2000/svg">
<g clip-path="url(#clip0)">
<path d="M10.0333 7.2627C9.72988 7.54871 9.35699 7.75988 8.94238 7.87015C9.33097 8.48569 9.5964 9.18956 9.69446 9.95104C9.71326 10.0981 9.68612 10.2407 9.62355 10.3701H11.7568C11.825 10.3701 11.8918 10.3388 11.9392 10.2845C11.9848 10.2328 12.0064 10.1668 11.9984 10.1038C11.8409 8.87796 11.0703 7.83141 10.0333 7.2627Z" fill="#383838" fill-opacity="0.85"/>
<path d="M7.57363 6.42229C7.65897 6.48289 7.74103 6.54768 7.82218 6.6133C7.90381 6.67937 7.98456 6.74635 8.06178 6.81726C8.28169 7.01815 8.48412 7.23781 8.66683 7.47434C9.01213 7.41134 9.32806 7.26405 9.5924 7.05401C9.6589 7.00106 9.72256 6.94527 9.78211 6.88507C9.8379 6.82863 9.88953 6.76825 9.93858 6.70608C10.22 6.34853 10.3893 5.89934 10.3893 5.41028C10.3893 4.25255 9.4473 3.31055 8.28956 3.31055C8.04625 3.31055 7.81344 3.3542 7.59593 3.43087C7.67187 3.69838 7.71516 3.97955 7.71516 4.27114C7.71516 4.96542 7.48213 5.60491 7.09375 6.12118C7.25919 6.21352 7.41978 6.31268 7.57363 6.42229Z" fill="#383838" fill-opacity="0.85"/>
<path d="M4.43042 10.3703H4.82255H8.90024C9.00682 10.3703 9.10681 10.3259 9.17485 10.2489C9.23461 10.1813 9.26128 10.0957 9.24969 10.0084C9.15207 9.24629 8.8709 8.54785 8.45866 7.95006C8.4079 7.87675 8.35648 7.80412 8.302 7.73387C8.2394 7.65377 8.1729 7.57718 8.1057 7.50102C7.91272 7.28351 7.70093 7.08422 7.4718 6.90607C7.39349 6.84503 7.31274 6.78728 7.23045 6.73149C7.15014 6.67697 7.06983 6.62315 6.98624 6.5737C6.92367 6.5365 6.85913 6.50239 6.79456 6.46803C6.73134 6.53085 6.66546 6.59079 6.59677 6.64811C6.53919 6.69581 6.47859 6.73958 6.41756 6.78334C6.35714 6.82663 6.29457 6.86715 6.23088 6.90585C6.20048 6.92447 6.17075 6.94393 6.13941 6.96142C6.13001 6.9667 6.12126 6.97301 6.11186 6.97807C5.67072 7.22138 5.16461 7.36054 4.62621 7.36054C3.78147 7.36054 3.01565 7.01896 2.45743 6.46777C1.15387 7.16034 0.201803 8.45457 0.0025502 10.0069C-0.00881901 10.0948 0.0180736 10.1806 0.0782721 10.2491C0.145977 10.3258 0.245895 10.3703 0.351898 10.3703H4.18212H4.43042V10.3703Z" fill="#383838" fill-opacity="0.85"/>
<path d="M2.72209 6.09606C2.77744 6.1536 2.83542 6.20852 2.89573 6.26103C3.35971 6.66496 3.96385 6.91155 4.62599 6.91155C5.1297 6.91155 5.59926 6.76714 6.00035 6.52143C6.0646 6.48182 6.12694 6.44006 6.18732 6.3956C6.24556 6.35271 6.30196 6.30829 6.35604 6.26106C6.35976 6.25778 6.36326 6.25425 6.36697 6.25119C6.42324 6.20178 6.47771 6.15029 6.52957 6.09606C6.58448 6.03871 6.63721 5.97964 6.68688 5.91751C7.0488 5.46554 7.26674 4.89355 7.26674 4.27061C7.26674 4.04862 7.23631 3.83417 7.18424 3.62784C7.16518 3.55234 7.14354 3.47819 7.11814 3.40531C7.09322 3.33388 7.06585 3.26352 7.03524 3.19472C6.62234 2.27385 5.69885 1.62988 4.62599 1.62988C3.17001 1.62988 1.98535 2.81454 1.98535 4.27064C1.98535 4.8934 2.20319 5.46536 2.565 5.91733C2.61452 5.97964 2.66718 6.03871 2.72209 6.09606Z" fill="#383838" fill-opacity="0.85"/>
</g>
<defs>
<clipPath id="clip0">
<rect width="12" height="12" fill="white"/>
</clipPath>
</defs>
</svg>
