<svg width="12" height="12" viewBox="0 0 12 12" fill="none" xmlns="http://www.w3.org/2000/svg">
<path d="M11.6484 4.71094H11.1144C10.9893 4.21144 10.7928 3.7372 10.5279 3.29515L10.9056 2.91745C11.0429 2.78016 11.0429 2.55757 10.9056 2.42027L9.57973 1.09444C9.44243 0.957141 9.21984 0.957141 9.08255 1.09444L8.70485 1.47213C8.26284 1.2072 7.78854 1.01072 7.28906 0.885586V0.351562C7.28906 0.157406 7.13166 0 6.9375 0H5.0625C4.86834 0 4.71094 0.157406 4.71094 0.351562V0.885586C4.21146 1.0107 3.73716 1.2072 3.29515 1.47213L2.91745 1.09444C2.78016 0.957141 2.55757 0.957141 2.42027 1.09444L1.09446 2.42027C0.957164 2.55757 0.957164 2.78016 1.09446 2.91745L1.47213 3.29515C1.2072 3.73718 1.01072 4.21141 0.885586 4.71094H0.351562C0.157406 4.71094 0 4.86834 0 5.0625V6.9375C0 7.13166 0.157406 7.28906 0.351562 7.28906H0.885586C1.01072 7.78859 1.2072 8.26282 1.47213 8.70485L1.09444 9.08255C0.957141 9.21984 0.957141 9.44243 1.09444 9.57973L2.42027 10.9055C2.55757 11.0428 2.78016 11.0428 2.91745 10.9055L3.29515 10.5278C3.73718 10.7928 4.21148 10.9893 4.71094 11.1144V11.6484C4.71094 11.8426 4.86834 12 5.0625 12H6.9375C7.13166 12 7.28906 11.8426 7.28906 11.6484V11.1144C7.78852 10.9893 8.26282 10.7928 8.70485 10.5279L9.08255 10.9055C9.21984 11.0428 9.44243 11.0428 9.57973 10.9055L10.9056 9.57973C11.0429 9.44243 11.0429 9.21984 10.9056 9.08255L10.5279 8.70485C10.7928 8.2628 10.9893 7.78856 11.1144 7.28906H11.6484C11.8426 7.28906 12 7.13166 12 6.9375V5.0625C12 4.86834 11.8426 4.71094 11.6484 4.71094ZM6 9.63281C3.99687 9.63281 2.36719 8.00313 2.36719 6C2.36719 3.99687 3.99687 2.36719 6 2.36719C8.00313 2.36719 9.63281 3.99687 9.63281 6C9.63281 8.00313 8.00313 9.63281 6 9.63281Z" fill="#383838" fill-opacity="0.85"/>
<path d="M6 6.35156C6.45305 6.35156 6.82031 5.9843 6.82031 5.53125C6.82031 5.0782 6.45305 4.71094 6 4.71094C5.54695 4.71094 5.17969 5.0782 5.17969 5.53125C5.17969 5.9843 5.54695 6.35156 6 6.35156Z" fill="#383838" fill-opacity="0.85"/>
<path d="M5.99905 7.05469C5.1843 7.05469 4.51696 7.6976 4.47754 8.50275C4.92128 8.77352 5.44227 8.92969 5.99905 8.92969C6.55583 8.92969 7.07682 8.77352 7.52057 8.50275C7.48114 7.6976 6.81381 7.05469 5.99905 7.05469Z" fill="#383838" fill-opacity="0.85"/>
<path d="M6 3.07031C4.38457 3.07031 3.07031 4.38457 3.07031 6C3.07031 6.76779 3.36734 7.4674 3.85233 7.99036C4.01381 7.401 4.41185 6.90841 4.9377 6.62175C4.65352 6.34484 4.47656 5.95842 4.47656 5.53125C4.47656 4.69123 5.15998 4.00781 6 4.00781C6.84002 4.00781 7.52344 4.69123 7.52344 5.53125C7.52344 5.95842 7.34648 6.34484 7.0623 6.62173C7.58815 6.90841 7.98619 7.40098 8.14767 7.99034C8.63266 7.4674 8.92969 6.76779 8.92969 6C8.92969 4.38457 7.61543 3.07031 6 3.07031Z" fill="#383838" fill-opacity="0.85"/>
</svg>
