<svg width="10" height="12" viewBox="0 0 10 12" fill="none" xmlns="http://www.w3.org/2000/svg">
<path d="M8.625 0H1.375C0.6165 0 0 0.6165 0 1.375V10.625C0 11.3835 0.6165 12 1.375 12H8.625C9.3835 12 10 11.3835 10 10.625V1.375C10 0.6165 9.3835 0 8.625 0ZM3.89 9.36C4.0365 9.5065 4.0365 9.744 3.89 9.8905C3.817 9.9635 3.721 10 3.625 10C3.529 10 3.433 9.9635 3.36 9.89L3 9.5305L2.64 9.8905C2.567 9.9635 2.471 10 2.375 10C2.279 10 2.183 9.9635 2.11 9.89C1.9635 9.7435 1.9635 9.506 2.11 9.3595L2.4695 9L2.1095 8.64C1.963 8.4935 1.963 8.256 2.1095 8.1095C2.256 7.963 2.4935 7.963 2.64 8.1095L3 8.4695L3.36 8.1095C3.5065 7.963 3.744 7.963 3.8905 8.1095C4.037 8.256 4.037 8.4935 3.8905 8.64L3.5305 9L3.89 9.36ZM3.625 6.375H3.375V6.625C3.375 6.832 3.207 7 3 7C2.793 7 2.625 6.832 2.625 6.625V6.375H2.375C2.168 6.375 2 6.207 2 6C2 5.793 2.168 5.625 2.375 5.625H2.625V5.375C2.625 5.168 2.793 5 3 5C3.207 5 3.375 5.168 3.375 5.375V5.625H3.625C3.832 5.625 4 5.793 4 6C4 6.207 3.832 6.375 3.625 6.375ZM7.625 10H6.375C6.168 10 6 9.832 6 9.625C6 9.418 6.168 9.25 6.375 9.25H7.625C7.832 9.25 8 9.418 8 9.625C8 9.832 7.832 10 7.625 10ZM7.625 8.75H6.375C6.168 8.75 6 8.582 6 8.375C6 8.168 6.168 8 6.375 8H7.625C7.832 8 8 8.168 8 8.375C8 8.582 7.832 8.75 7.625 8.75ZM7.625 6.5H6.375C6.168 6.5 6 6.332 6 6.125C6 5.918 6.168 5.75 6.375 5.75H7.625C7.832 5.75 8 5.918 8 6.125C8 6.332 7.832 6.5 7.625 6.5ZM8.5 3.125C8.5 3.6075 8.1075 4 7.625 4H2.375C1.8925 4 1.5 3.6075 1.5 3.125V2.375C1.5 1.8925 1.8925 1.5 2.375 1.5H7.625C8.1075 1.5 8.5 1.8925 8.5 2.375V3.125Z" fill="#383838" fill-opacity="0.85"/>
</svg>
